<svg width="275" height="275" viewBox="0 0 189 190" fill="none" xmlns="http://www.w3.org/2000/svg">
<path d="M144.346 113.072L141.552 118.317C138.928 123.245 140.306 128.449 144.85 130.869C149.394 133.289 154.458 131.518 157.083 126.589L159.877 121.344L144.346 113.072ZM145.012 115.691L157.333 122.253L155.478 125.734C153.407 129.623 149.396 130.998 145.801 129.083C142.184 127.156 141.087 123.06 143.158 119.172L145.012 115.691Z" fill="#325BE9"/>
<path d="M136.871 148.999L138.173 150.376L147.346 141.697L135.252 128.915L126.08 137.594L127.382 138.97L135.085 131.683L139.292 136.129L132.352 142.695L133.655 144.072L140.595 137.506L144.573 141.711L136.871 148.999Z" fill="#325BE9"/>
<path d="M118.064 141.918C114.429 143.81 113.618 146.802 114.907 149.278C116.338 152.028 119.03 151.984 122.373 151.139C125.362 150.392 127.203 150.156 128.042 151.769C128.787 153.2 128.041 155.206 126.109 156.211C124.473 157.062 122.538 157.117 120.593 156.541L120.224 158.495C122.341 159.067 124.541 159.078 126.858 157.871C129.857 156.311 131.067 153.198 129.766 150.698C128.359 147.995 125.874 148.046 122.36 148.951C119.302 149.734 117.483 149.844 116.619 148.185C115.886 146.776 116.427 144.82 118.836 143.567C121.017 142.431 123.115 142.523 125.119 143.155L125.511 141.19C123.139 140.461 120.632 140.582 118.064 141.918Z" fill="#325BE9"/>
<path d="M110.274 145.481L108.361 146.06L113.464 162.901L115.376 162.321L110.274 145.481Z" fill="#325BE9"/>
<path d="M98.1292 155.291L93.0995 155.695L92.7635 151.508C93.9857 150.407 95.8238 149.617 97.4578 149.486C101.236 149.183 104.694 152.246 105.01 156.178C105.323 160.084 102.398 163.659 98.6196 163.963C96.7048 164.116 94.3628 163.431 92.9776 162.18L91.7351 163.667C93.5023 165.196 96.3417 165.996 98.7672 165.801C103.618 165.412 107.422 160.944 107.027 156.016C106.631 151.088 102.161 147.259 97.3103 147.648C94.8848 147.843 92.2114 149.111 90.7085 150.876L91.2597 157.744L98.2809 157.18L98.1292 155.291Z" fill="#325BE9"/>
<path d="M88.3552 148.333L86.4217 147.83L82.8174 161.687L75.8617 145.083L73.9282 144.58L69.4985 161.61L71.432 162.113L75.0364 148.256L81.992 164.86L83.9255 165.363L88.3552 148.333Z" fill="#325BE9"/>
<path d="M51.5621 149.381L50.528 150.969L61.1104 157.859L70.7111 143.112L60.1287 136.222L59.0946 137.811L67.9812 143.596L64.6412 148.727L56.6346 143.514L55.6005 145.102L63.6071 150.315L60.4488 155.166L51.5621 149.381Z" fill="#325BE9"/>
<path d="M39.9429 131.621C37.4131 133.746 37.4574 137.422 39.797 140.207L44.394 145.678L57.8666 134.359L56.5814 132.829L51.7376 136.899L48.7388 133.33L50.7158 125.848L49.2494 124.103L47.2011 131.778C44.9541 130.02 42.0608 129.841 39.9429 131.621ZM44.56 142.93L41.4789 139.262C39.6335 137.066 39.4403 134.686 41.2445 133.17C43.0487 131.654 45.3599 132.255 47.2053 134.451L50.2864 138.118L44.56 142.93Z" fill="#325BE9"/>
<path d="M34.5388 113.814C33.7936 114.002 33.1683 114.036 32.6629 113.917C32.1367 113.785 31.7221 113.537 31.4192 113.173C31.1121 112.793 30.894 112.346 30.7648 111.833C30.6355 111.319 30.6182 110.831 30.7127 110.367C30.8072 109.903 31.055 109.488 31.4561 109.123C31.8407 108.762 32.4056 108.488 33.1507 108.3C33.8793 108.117 34.5067 108.091 35.0329 108.223C35.5425 108.358 35.9571 108.606 36.2766 108.966C36.5795 109.33 36.7956 109.769 36.9248 110.282C37.054 110.795 37.0734 111.292 36.9831 111.773C36.872 112.241 36.6242 112.655 36.2396 113.016C35.8343 113.365 35.2674 113.631 34.5388 113.814Z" fill="#325BE9"/>
<path d="M40.7231 90.7218L42.108 84.9431C43.4093 79.513 40.7666 74.8236 35.76 73.6237C30.7535 72.4239 26.2972 75.4122 24.9959 80.8422L23.6111 86.621L40.7231 90.7218ZM39.4202 88.3551L25.8452 85.1019L26.7644 81.266C27.7911 76.9818 31.328 74.6424 35.2885 75.5915C39.2738 76.5466 41.3662 80.235 40.3395 84.5193L39.4202 88.3551Z" fill="#325BE9"/>
<path d="M38.9563 53.8979L37.3485 52.8941L30.6612 63.6055L45.5877 72.9243L52.275 62.2129L50.6672 61.2091L45.0515 70.2041L39.8587 66.9622L44.9183 58.858L43.3105 57.8542L38.2509 65.9584L33.3406 62.8928L38.9563 53.8979Z" fill="#325BE9"/>
<path d="M53.5834 37.1996L58.1055 53.1071L43.3034 45.7085L41.6262 47.0967L58.8249 55.7036L60.5021 54.3153L55.2606 35.8113L53.5834 37.1996Z" fill="#325BE9"/>
<path d="M74.2932 29.2948L73.5999 27.5307L61.8474 32.1494L68.2835 48.5267L80.0361 43.908L79.3428 42.1439L69.4735 46.0225L67.2344 40.325L76.1263 36.8306L75.4331 35.0665L66.5412 38.5609L64.4239 33.1734L74.2932 29.2948Z" fill="#325BE9"/>
<path d="M84.7468 41.1253L83.0827 25.5126L81.0961 25.7243L82.9611 43.2218L94.4987 41.992L94.2978 40.1073L84.7468 41.1253Z" fill="#325BE9"/>
<path d="M103.706 43.567C108.511 44.4865 113.321 41.156 114.25 36.3007C115.179 31.4453 111.934 26.5997 107.129 25.6802C102.349 24.7656 97.4938 28.0613 96.5648 32.9166C95.6357 37.772 98.9266 42.6524 103.706 43.567ZM104.053 41.7557C100.33 41.0433 97.8109 37.1711 98.5522 33.2969C99.2887 29.4478 103.059 26.7791 106.782 27.4916C110.506 28.204 112.999 32.0713 112.263 35.9204C111.522 39.7946 107.776 42.4681 104.053 41.7557Z" fill="#325BE9"/>
<path d="M114.202 45.3279L115.947 46.3006L119.028 40.7746L123.525 43.2813C126.701 45.0522 130.32 44.4007 131.928 41.5146C133.537 38.6286 132.189 35.2084 129.012 33.4374L122.77 29.958L114.202 45.3279ZM119.951 39.1191L123.592 32.5863L127.776 34.9184C130.282 36.3152 131.308 38.4711 130.161 40.5294C129.014 42.5876 126.64 42.848 124.134 41.4512L119.951 39.1191Z" fill="#325BE9"/>
<path d="M147.427 51.8758L148.794 50.563L140.048 41.4548L127.356 53.6425L136.102 62.7508L137.469 61.438L130.124 53.7893L134.54 49.5493L141.157 56.4405L142.524 55.1277L135.907 48.2365L140.083 44.2271L147.427 51.8758Z" fill="#325BE9"/>
<path d="M154.789 71.7717C157.731 70.2677 158.512 66.6752 156.857 63.4367L153.604 57.0738L137.936 65.0839L138.845 66.8628L144.478 63.9829L146.6 68.1336L142.996 74.9817L144.034 77.0115L147.751 69.9905C149.547 72.2082 152.326 73.031 154.789 71.7717ZM152.825 59.7155L155.006 63.9802C156.312 66.5345 155.966 68.8974 153.868 69.9701C151.77 71.0427 149.652 69.9391 148.346 67.3848L146.166 63.1201L152.825 59.7155Z" fill="#325BE9"/>
<path d="M156.107 90.2915C156.875 90.276 157.492 90.3832 157.958 90.6129C158.441 90.8594 158.789 91.1939 159.003 91.6166C159.217 92.0564 159.329 92.5409 159.339 93.0701C159.35 93.5994 159.257 94.0794 159.061 94.5104C158.865 94.9413 158.53 95.2896 158.057 95.5553C157.602 95.8207 156.99 95.9611 156.221 95.9766C155.47 95.9917 154.853 95.876 154.37 95.6295C153.904 95.3827 153.555 95.0482 153.325 94.6258C153.111 94.2031 152.999 93.7272 152.989 93.1979C152.978 92.6687 153.071 92.1801 153.267 91.7321C153.48 91.3008 153.814 90.9525 154.27 90.6871C154.743 90.4385 155.356 90.3066 156.107 90.2915Z" fill="#325BE9"/>
</svg>
